<svg width="100" height="100" fill="none" xmlns="http://www.w3.org/2000/svg"><path fill-rule="evenodd" clip-rule="evenodd" d="M45.225 77.67a28.487 28.487 0 0 0 8.657 0h28.423C92.077 77.67 100 69.714 100 59.9c0-9.815-7.923-17.771-17.695-17.771-1.788 0-3.513.269-5.14.764 0 0 14.998 1.994 14.998 16.838 0 14.845-13.168 13.807-13.168 13.807H14.307s-3.863-.025-8.652-.62a17.59 17.59 0 0 0 12.04 4.752h27.53Z" fill="#415EB6"/><path fill-rule="evenodd" clip-rule="evenodd" d="M82.305 42.13c-1.788 0-3.513.268-5.14.763C74.198 30.34 62.963 21 49.553 21 36.228 21 25.05 30.224 22 42.66a17.654 17.654 0 0 0-4.303-.53C7.923 42.13 0 50.085 0 59.9s7.923 17.77 17.696 17.77h27.53a28.473 28.473 0 0 0 8.656 0h28.423C92.078 77.67 100 69.714 100 59.9s-7.922-17.77-17.695-17.77Z" fill="#567DF4"/><path fill-rule="evenodd" clip-rule="evenodd" d="M24.906 47.15s9.613-29.706 39.615-21.866A28.156 28.156 0 0 0 49.553 21C36.228 21 25.05 30.224 22 42.66a17.654 17.654 0 0 0-4.303-.53C7.923 42.13 0 50.085 0 59.9c0 2.744.62 5.342 1.726 7.662.233-8.895 3.422-24.19 23.18-20.412Z" fill="#DDEEFB"/></svg>